<svg width="44" height="40" viewBox="0 0 44 40" fill="none" xmlns="http://www.w3.org/2000/svg">
<path fill-rule="evenodd" clip-rule="evenodd" d="M27.142 39.9999C31.5298 39.9999 35.12 36.4099 35.12 32.022V13.3557C35.12 7.58696 32.1878 5.35286 27.142 5.3778C24.9912 5.38842 18.4413 12.1975 12.0917 18.6452C7.42399 23.385 2.7031 27.6554 0.73692 30.2796C-0.985056 32.5779 -0.124518 40 8.05077 40H27.142V39.9999Z" fill="#5CBEFE"/>
<path fill-rule="evenodd" clip-rule="evenodd" d="M16.3427 8.23084e-05C11.9548 8.23084e-05 8.36475 3.59013 8.36475 7.97799V26.6443C8.36475 32.4131 11.2969 34.6472 16.3427 34.6222C18.4935 34.6116 25.0433 27.8026 31.3929 21.3548C36.0606 16.615 40.7816 12.3446 42.7477 9.72038C44.4696 7.42208 43.6092 0 35.4339 0H16.3427V8.23084e-05Z" fill="#EF5579"/>
<path fill-rule="evenodd" clip-rule="evenodd" d="M35.12 17.6515V13.3557C35.12 7.58696 32.1879 5.35286 27.142 5.3778C24.9912 5.38842 18.4414 12.1975 12.0918 18.6452C10.835 19.9214 9.57443 21.1634 8.36475 22.3486V26.6444C8.36475 32.4132 11.2969 34.6473 16.3427 34.6223C18.4935 34.6117 25.0433 27.8026 31.3929 21.3549C32.6497 20.0787 33.9103 18.8367 35.1199 17.6515H35.12Z" fill="#545DB6"/>
</svg>
